<svg width="32" height="32" viewBox="0 0 32 32" fill="none" xmlns="http://www.w3.org/2000/svg">
<path d="M15 8C15 7.44772 15.4477 7 16 7C16.5523 7 17 7.44772 17 8V15.3818L21.7803 17.7725C22.2743 18.0195 22.4745 18.6203 22.2275 19.1143C21.9804 19.608 21.3796 19.8084 20.8857 19.5615L15.5527 16.8945C15.214 16.7251 15 16.3788 15 16V8Z" fill="white"/>
<path d="M28.334 15.9997C28.3338 9.18833 22.8114 3.66669 16 3.66669C9.18875 3.66686 3.66717 9.18844 3.66699 15.9997C3.66699 22.8111 9.18864 28.3335 16 28.3337C22.8115 28.3337 28.334 22.8112 28.334 15.9997ZM30.334 15.9997C30.334 23.9158 23.9161 30.3337 16 30.3337C8.08407 30.3335 1.66699 23.9157 1.66699 15.9997C1.66717 8.08387 8.08418 1.66686 16 1.66669C23.916 1.66669 30.3338 8.08376 30.334 15.9997Z" fill="white"/>
</svg>
