<svg width="32" height="32" viewBox="0 0 32 32" fill="none" xmlns="http://www.w3.org/2000/svg">
<path d="M26.6663 17.3333C26.6663 24 21.9997 27.3333 16.453 29.2667C16.1626 29.3651 15.8471 29.3604 15.5597 29.2533C9.99967 27.3333 5.33301 24 5.33301 17.3333V8.00001C5.33301 7.64639 5.47348 7.30725 5.72353 7.0572C5.97358 6.80715 6.31272 6.66668 6.66634 6.66668C9.33301 6.66668 12.6663 5.06668 14.9863 3.04001C15.2688 2.79867 15.6281 2.66608 15.9997 2.66608C16.3712 2.66608 16.7305 2.79867 17.013 3.04001C19.3463 5.08001 22.6663 6.66668 25.333 6.66668C25.6866 6.66668 26.0258 6.80715 26.2758 7.0572C26.5259 7.30725 26.6663 7.64639 26.6663 8.00001V17.3333Z" stroke="white" stroke-width="2" stroke-linecap="round" stroke-linejoin="round"/>
</svg>
