<svg width="32" height="32" viewBox="0 0 32 32" fill="none" xmlns="http://www.w3.org/2000/svg">
<path d="M17.8345 1.67103C18.1147 1.64352 18.3972 1.68775 18.6558 1.79896L18.7838 1.86049L18.9048 1.93177C19.1413 2.08522 19.3346 2.29643 19.4673 2.54506L19.5289 2.67201L19.5787 2.80384C19.6825 3.11585 19.6918 3.45255 19.6041 3.77162C19.6005 3.78458 19.5974 3.79788 19.5933 3.81068L17.0328 11.837C17.0279 11.8524 17.0228 11.8678 17.0171 11.8829C16.9983 11.9335 16.9919 11.9886 16.9986 12.0421C17.0054 12.0954 17.0246 12.1465 17.0552 12.1906C17.086 12.2348 17.1275 12.2712 17.1754 12.296C17.2232 12.3209 17.2767 12.3333 17.3306 12.3331H26.6666C27.107 12.3322 27.5386 12.4564 27.9117 12.6906C28.2856 12.9253 28.5853 13.2611 28.7759 13.6593C28.9665 14.0576 29.0406 14.5021 28.9888 14.9406C28.937 15.379 28.7621 15.794 28.4839 16.1369C28.4653 16.1599 28.445 16.182 28.4244 16.2033L15.2242 29.8029L15.2232 29.8019C14.9797 30.0645 14.6593 30.2434 14.3062 30.3087C13.9346 30.3774 13.5506 30.318 13.2173 30.1398C12.8841 29.9615 12.6204 29.6755 12.4713 29.3283C12.3221 28.9809 12.2958 28.5922 12.3961 28.2277L12.4078 28.1896L14.9673 20.1632L14.9839 20.1163C15.0027 20.066 15.0082 20.0115 15.0015 19.9581C14.9948 19.9048 14.9756 19.8538 14.9449 19.8097C14.9141 19.7655 14.8726 19.7291 14.8248 19.7042C14.7771 19.6795 14.7242 19.667 14.6705 19.6671H5.33356V19.6661C4.89319 19.667 4.46146 19.5438 4.08844 19.3097C3.71456 19.075 3.41478 18.7391 3.22418 18.341C3.0336 17.9427 2.96047 17.4982 3.01227 17.0597C3.06408 16.6212 3.23897 16.2063 3.51715 15.8634L3.57574 15.797L16.7759 2.19642V2.1974C17.0195 1.93474 17.3407 1.75595 17.6939 1.69056L17.8345 1.67103ZM5.06012 17.1388C5.02688 17.1847 5.00432 17.2376 4.99762 17.2941C4.99022 17.3567 5.00066 17.4208 5.02789 17.4777C5.05512 17.5345 5.09857 17.5819 5.15192 17.6154C5.2052 17.6488 5.26674 17.6672 5.32965 17.6671H14.6666C15.0428 17.6664 15.4137 17.7562 15.7476 17.9298C16.0825 18.104 16.3708 18.3574 16.5865 18.6671C16.8019 18.9767 16.9387 19.334 16.9859 19.7081C17.031 20.0663 16.9907 20.4293 16.8716 20.7697L16.8726 20.7706L14.7525 27.4171L26.939 14.8615C26.9725 14.8154 26.9957 14.7629 27.0025 14.7062C27.0099 14.6435 26.9995 14.5795 26.9722 14.5226C26.945 14.4658 26.9016 14.4174 26.8482 14.3839C26.7949 14.3506 26.7333 14.333 26.6705 14.3331H17.3336V14.3322C16.9573 14.3329 16.5863 14.2441 16.2525 14.0704C15.9177 13.8963 15.6303 13.6429 15.4146 13.3331C15.199 13.0235 15.0614 12.6664 15.0142 12.2921C14.9691 11.9339 15.0084 11.57 15.1275 11.2296L17.2466 4.58314L5.06012 17.1388Z" fill="white"/>
</svg>
