<svg width="252" height="48" viewBox="0 0 252 48" fill="none" xmlns="http://www.w3.org/2000/svg">
<path d="M6.11778 26.2511C7.11492 24.2035 9.58061 23.3532 11.625 24.3519C13.6695 25.3505 14.5185 27.82 13.5214 29.8677L10.5669 35.9345C9.56979 37.9821 7.1041 38.8324 5.05966 37.8338C3.01522 36.8351 2.16622 34.3656 3.16336 32.318L6.11778 26.2511Z" fill="#E84367"/>
<path d="M21.7088 20.223C22.706 18.1754 25.1717 17.325 27.2161 18.3237C29.2605 19.3224 30.1095 21.7919 29.1124 23.8395L23.2036 35.9732C22.2064 38.0209 19.7407 38.8712 17.6963 37.8725C15.6519 36.8738 14.8028 34.4043 15.8 32.3567L21.7088 20.223Z" fill="#E84367"/>
<path d="M38.367 14.1151C39.3641 12.0675 41.8298 11.2172 43.8743 12.2159C45.9187 13.2146 46.7677 15.6841 45.7706 17.7317L36.9073 35.9323C35.9102 37.9799 33.4445 38.8302 31.4 37.8315C29.3556 36.8328 28.5066 34.3633 29.5037 32.3157L38.367 14.1151Z" fill="#E84367"/>
<ellipse cx="6.86513" cy="34.1344" rx="4.11861" ry="4.125" fill="#E02C4B"/>
<path d="M29.5296 22.0312C29.5296 24.3094 27.6857 26.1562 25.411 26.1562C23.1364 26.1562 21.2924 24.3094 21.2924 22.0312C21.2924 19.7531 23.1364 17.9062 25.411 17.9062C27.6857 17.9062 29.5296 19.7531 29.5296 22.0312Z" fill="#542056"/>
<ellipse cx="42.0689" cy="15.9235" rx="4.11861" ry="4.125" fill="#542056"/>
<ellipse cx="19.5018" cy="34.1653" rx="4.11861" ry="4.125" fill="#E02C4B"/>
<ellipse cx="33.2055" cy="34.1241" rx="4.11861" ry="4.125" fill="#E02C4B"/>
<path d="M61.7662 38.2084H52.7336V15.3637H61.2834C63.5566 15.3637 65.3269 15.8857 66.5943 16.9089C67.8617 17.9321 68.5055 19.5609 68.5055 21.7535C68.5055 23.1944 67.7209 24.5517 66.1517 25.8255C68.425 27.0575 69.5515 28.9578 69.5515 31.5054C69.5515 33.5935 68.8474 35.2223 67.4392 36.4335C66.031 37.6237 64.14 38.2084 61.7662 38.2084ZM60.6598 18.9971H56.8978V24.677H60.016C61.2432 24.677 62.2289 24.4264 62.9531 23.9461C63.6773 23.4658 64.0596 22.7559 64.0596 21.8162C64.0596 20.793 63.7779 20.0621 63.1945 19.6236C62.6312 19.2059 61.7863 18.9971 60.6598 18.9971ZM61.726 28.206H56.8978V34.6168H61.4242C62.5709 34.6168 63.4762 34.3453 64.14 33.8024C64.8039 33.2594 65.1459 32.5077 65.1459 31.5262C65.1459 30.4821 64.8441 29.6469 64.2205 29.0622C63.617 28.4984 62.7922 28.206 61.726 28.206Z" fill="#3A1A53"/>
<path d="M86.8983 30.9415H76.3167C76.538 32.09 77.0006 32.9671 77.7249 33.5727C78.4491 34.1782 79.5555 34.4706 81.0442 34.4706C81.9092 34.4706 82.6938 34.3453 83.3778 34.0947C84.0618 33.8441 84.8061 33.4891 85.6108 33.0297L86.838 36.1829C86.0333 36.8302 85.1682 37.3314 84.2428 37.6864C83.3174 38.0414 82.211 38.2084 80.9436 38.2084C77.9663 38.2084 75.7131 37.4567 74.1641 35.9323C72.6151 34.4288 71.8506 32.3406 71.8506 29.6678C71.8506 27.9346 72.1725 26.4311 72.7962 25.1364C73.4399 23.8417 74.3452 22.8394 75.5321 22.1294C76.719 21.4194 78.1272 21.0644 79.7366 21.0644C81.3057 21.0644 82.6335 21.4403 83.7198 22.2129C84.8061 22.9647 85.5907 24.0088 86.1137 25.2826C86.6368 26.5772 86.8983 28.0181 86.8983 29.6051V30.9415ZM76.3368 28.0181H82.9151C82.6938 26.9531 82.3116 26.1387 81.7684 25.5958C81.2253 25.0529 80.501 24.7814 79.6561 24.7814C78.7911 24.7814 78.0669 25.0529 77.4835 25.5958C76.9001 26.1596 76.5178 26.9531 76.3368 28.0181Z" fill="#3A1A53"/>
<path d="M91.1287 26.2014L90.0021 22.5679C90.5654 22.192 91.4505 21.837 92.6978 21.5447C93.925 21.2524 94.9107 21.0853 95.6349 21.0853C96.8822 21.0853 98.0289 21.3359 99.075 21.8579C100.101 22.38 100.946 23.09 101.549 24.0088C102.173 24.9276 102.475 25.9508 102.475 27.0993V37.8117H99.7187L99.0146 36.0576C97.707 37.4984 96.3189 38.2084 94.8705 38.2084C92.9996 38.2084 91.5712 37.7281 90.6257 36.7885C89.6802 35.8279 89.1974 34.5541 89.1974 32.9462C89.1974 31.2965 89.7406 30.0019 90.8068 29.1039C91.8931 28.206 93.3416 27.7466 95.1521 27.7466H98.23C98.2099 26.9113 97.9685 26.264 97.5259 25.8046C97.0834 25.3452 96.4798 25.1155 95.6953 25.1155C94.9912 25.1155 94.1865 25.2199 93.3416 25.4287C92.4765 25.6584 91.7523 25.909 91.1287 26.2014ZM92.7984 32.9671C92.7984 33.4682 92.9794 33.8859 93.3617 34.2409C93.7439 34.5959 94.2267 34.7838 94.8101 34.7838C96.0574 34.7838 97.2242 34.2409 98.2703 33.1759V30.691H95.0918C94.4078 30.691 93.8445 30.9207 93.422 31.3592C92.9996 31.7977 92.7984 32.3406 92.7984 32.9671Z" fill="#3A1A53"/>
<path fill-rule="evenodd" clip-rule="evenodd" d="M115.476 21.3777H119.681V37.6864H116.925L116.221 35.9323C115.255 36.6423 114.209 37.2061 113.102 37.6029C111.996 37.9996 111.01 38.2084 110.165 38.2084C108.174 38.2084 106.786 37.6237 105.981 36.4544C105.176 35.285 104.774 33.6562 104.774 31.5889V21.3777H108.978V31.4009C108.978 32.4033 109.18 33.1968 109.582 33.7606C109.984 34.3244 110.527 34.5959 111.252 34.5959C111.976 34.5959 112.68 34.4288 113.324 34.0738C113.967 33.7188 114.692 33.2594 115.456 32.6747V21.3777H115.476Z" fill="#3A1A53"/>
<path fill-rule="evenodd" clip-rule="evenodd" d="M131.133 21.2732L132.421 24.6352H128.276V31.568C128.276 32.445 128.478 33.155 128.88 33.6771C129.282 34.22 129.846 34.4914 130.59 34.4914C131.153 34.4914 131.717 34.3453 132.3 34.0529L133.527 37.2061C133.205 37.4776 132.722 37.7073 132.079 37.9161C131.435 38.1249 130.872 38.2084 130.349 38.2084C128.377 38.2084 126.848 37.6864 125.742 36.6632C124.635 35.6399 124.092 34.1782 124.092 32.3197V24.6143H121.98V21.2523H124.092V17.4101L128.276 16.6375V21.2732H131.133Z" fill="#3A1A53"/>
<path d="M138.16 19.6027C137.516 19.6027 136.953 19.373 136.51 18.8927C136.047 18.4124 135.826 17.8486 135.826 17.1386C135.826 16.4495 136.047 15.8648 136.51 15.3845C136.973 14.9043 137.516 14.6746 138.16 14.6746C138.824 14.6746 139.387 14.9043 139.85 15.3845C140.312 15.8648 140.554 16.4286 140.554 17.1386C140.554 17.8277 140.312 18.4124 139.85 18.8927C139.387 19.3521 138.824 19.6027 138.16 19.6027ZM136.088 38.2084V21.8997H140.292V38.2084H136.088Z" fill="#3A1A53"/>
<path fill-rule="evenodd" clip-rule="evenodd" d="M142.853 25.3243V21.9623H145.287V20.7094C145.287 18.8092 145.83 17.3057 146.896 16.2407C147.983 15.1549 149.471 14.6328 151.403 14.6328C151.906 14.6328 152.469 14.7372 153.092 14.9252C153.716 15.134 154.199 15.3637 154.541 15.656L153.334 18.8092C152.63 18.5168 152.046 18.3707 151.584 18.3707C150.88 18.3707 150.336 18.6421 149.994 19.1642C149.652 19.6862 149.471 20.3962 149.471 21.2941V21.9415H152.449L153.776 25.3034H149.471V38.2084H145.267V25.3034H142.853V25.3243Z" fill="#3A1A53"/>
<path fill-rule="evenodd" clip-rule="evenodd" d="M167.542 21.3776H171.747V37.6864H168.991L168.287 35.9323C167.321 36.6423 166.275 37.2061 165.168 37.6028C164.062 37.9996 163.076 38.2084 162.231 38.2084C160.24 38.2084 158.852 37.6237 158.047 36.4543C157.242 35.2849 156.84 33.6562 156.84 31.5889V21.3776H161.044V31.4009C161.044 32.4032 161.246 33.1968 161.648 33.7606C162.05 34.3244 162.593 34.5958 163.318 34.5958C164.042 34.5958 164.746 34.4288 165.39 34.0738C166.034 33.7188 166.758 33.2594 167.522 32.6747V21.3776H167.542Z" fill="#3A1A53"/>
<path fill-rule="evenodd" clip-rule="evenodd" d="M174.046 38.2084V14.8625L178.23 14.4866V38.2084H174.046Z" fill="#3A1A53"/>
<path fill-rule="evenodd" clip-rule="evenodd" d="M196.965 15.9066L195.678 19.0389L194.873 18.8092C194.028 18.5377 193.364 18.3498 192.861 18.2454C192.358 18.141 191.755 18.0992 191.01 18.0992C189.844 18.0992 188.798 18.4333 187.872 19.1015C186.947 19.7697 186.223 20.7303 185.679 21.9832C185.156 23.2361 184.895 24.6979 184.895 26.3893C184.895 27.8928 185.136 29.271 185.599 30.503C186.062 31.7559 186.746 32.7374 187.631 33.4683C188.516 34.1991 189.562 34.5541 190.769 34.5541C192.358 34.5541 193.968 34.1991 195.597 33.51L197.186 36.7467C196.362 37.1852 195.376 37.5611 194.189 37.8117C193.022 38.0831 191.956 38.2084 190.99 38.2084C188.757 38.2084 186.866 37.6864 185.297 36.6632C183.728 35.64 182.541 34.22 181.736 32.445C180.932 30.6701 180.529 28.6445 180.529 26.4102C180.529 24.0714 180.972 22.0041 181.837 20.1874C182.702 18.3707 183.949 16.9507 185.559 15.9275C187.168 14.9043 189.019 14.4031 191.151 14.4031C191.936 14.4031 192.881 14.5284 194.008 14.779C195.094 15.0504 196.1 15.4054 196.965 15.9066Z" fill="#3A1A53"/>
<path d="M215.237 34.1365C214.553 35.4311 213.568 36.4335 212.3 37.1434C211.033 37.8534 209.564 38.2084 207.874 38.2084C206.185 38.2084 204.716 37.8534 203.449 37.1643C202.181 36.4752 201.216 35.4729 200.512 34.1991C199.828 32.9044 199.486 31.4009 199.486 29.6886C199.486 27.9763 199.828 26.4519 200.512 25.1573C201.196 23.8626 202.181 22.8603 203.449 22.1503C204.716 21.4403 206.185 21.0853 207.874 21.0853C209.564 21.0853 211.033 21.4403 212.3 22.1294C213.568 22.8185 214.533 23.8208 215.237 25.0946C215.921 26.3893 216.283 27.8928 216.283 29.6051C216.263 31.3174 215.921 32.8418 215.237 34.1365ZM210.791 33.0924C211.556 32.1736 211.938 31.0042 211.938 29.6051C211.938 28.206 211.556 27.0366 210.812 26.1387C210.047 25.2408 209.082 24.8023 207.895 24.8023C206.728 24.8023 205.762 25.2617 204.998 26.1805C204.233 27.0993 203.851 28.2687 203.851 29.6677C203.851 31.0668 204.233 32.2362 204.978 33.1341C205.742 34.0321 206.708 34.4706 207.895 34.4706C209.041 34.4706 210.007 34.0112 210.791 33.0924Z" fill="#3A1A53"/>
<path d="M234.153 14.0899V37.8117H231.96L230.995 36.3291C229.607 37.582 228.098 38.2084 226.468 38.2084C224.034 38.2084 222.103 37.4358 220.695 35.9114C219.287 34.3662 218.583 32.2989 218.583 29.6677C218.583 27.9554 218.904 26.4728 219.528 25.1573C220.172 23.8626 221.097 22.8394 222.304 22.1294C223.511 21.4194 224.94 21.0644 226.609 21.0644C227.132 21.0644 227.675 21.1688 228.259 21.3568C228.842 21.5447 229.406 21.8162 229.949 22.1503V14.4449L234.153 14.0899ZM223.873 33.155C224.537 34.0321 225.442 34.4915 226.609 34.4915C227.173 34.4915 227.716 34.387 228.239 34.1573C228.762 33.9276 229.325 33.5935 229.908 33.155V26.2014C229.345 25.7002 228.802 25.3661 228.299 25.1364C227.776 24.9276 227.213 24.8232 226.609 24.8232C225.463 24.8232 224.557 25.2826 223.893 26.1805C223.23 27.0784 222.888 28.2687 222.888 29.6886C222.888 31.1086 223.209 32.278 223.873 33.155Z" fill="#3A1A53"/>
<path d="M251.5 30.9415H240.918C241.14 32.09 241.602 32.9671 242.327 33.5727C243.051 34.1782 244.157 34.4706 245.646 34.4706C246.511 34.4706 247.295 34.3453 247.979 34.0947C248.663 33.8441 249.408 33.4891 250.212 33.0297L251.44 36.1829C250.635 36.8302 249.77 37.3314 248.845 37.6864C247.919 38.0414 246.813 38.2084 245.545 38.2084C242.568 38.2084 240.315 37.4567 238.766 35.9323C237.217 34.4288 236.452 32.3406 236.452 29.6678C236.452 27.9346 236.774 26.4311 237.398 25.1364C238.042 23.8417 238.947 22.8394 240.134 22.1294C241.321 21.4194 242.729 21.0644 244.338 21.0644C245.907 21.0644 247.235 21.4403 248.321 22.2129C249.408 22.9647 250.192 24.0088 250.715 25.2826C251.238 26.5772 251.5 28.0181 251.5 29.6051V30.9415ZM240.938 28.0181H247.517C247.295 26.9531 246.913 26.1387 246.37 25.5958C245.827 25.0529 245.103 24.7814 244.258 24.7814C243.393 24.7814 242.669 25.0529 242.085 25.5958C241.502 26.1596 241.12 26.9531 240.938 28.0181Z" fill="#3A1A53"/>
</svg>
