<svg width="767" height="318" viewBox="0 0 767 318" fill="none" xmlns="http://www.w3.org/2000/svg">
<path d="M669.67 266.925C666.329 266.226 662.986 265.534 659.647 264.826C653.463 263.516 647.237 262.466 640.891 262.845C638.03 263.016 635.194 263.597 632.346 263.992C631.878 264.057 631.411 264.18 630.942 264.183C628.187 264.197 626.726 261.89 628.257 259.583C631.667 254.445 635.349 249.508 640.429 245.818C645.323 242.265 650.818 241.227 656.715 241.886C667.105 243.047 677.207 245.604 687.292 248.231C689.336 248.764 691.362 249.424 693.514 248.774C695.959 248.036 698.019 246.736 699.562 244.684C699.908 244.224 700.201 243.705 700.426 243.174C701.547 240.542 700.786 238.964 698.008 238.291C691.884 236.808 685.741 235.404 679.623 233.902C670.835 231.744 662.208 229.128 654.122 224.955C646.028 220.778 638.707 215.535 632.196 209.179C630.087 207.119 628.099 204.933 626.1 202.764C624.699 201.243 624.377 199.439 625.323 197.605C629.051 190.371 629.889 182.637 629.39 174.674C629.192 171.515 628.876 168.361 628.498 165.218C628.42 164.574 627.935 163.875 627.441 163.412C626.678 162.697 625.718 162.197 624.891 161.544C623.51 160.453 623.318 159.319 624.209 157.808C624.43 157.433 624.685 157.07 624.973 156.744C626.802 154.678 627.536 152.23 627.604 149.519C627.834 140.127 628.003 130.734 628.362 121.347C628.558 116.226 628.711 111.055 629.544 106.015C631.553 93.8547 638.149 84.507 648.134 77.408C652.002 74.6577 656.218 72.6513 660.662 71.0656C660.788 71.0202 660.933 71.0246 661.202 70.9868C660.922 73.2563 660.63 75.4481 660.38 77.6449C659.613 84.3725 658.884 91.1038 658.092 97.8281C657.806 100.248 658.222 102.451 659.754 104.433C661.475 103.996 663.096 103.323 664.551 102.121C674.84 93.6288 685.17 85.1848 695.497 76.738C696.398 76.0012 697.346 75.3152 698.319 74.6763C700.494 73.2476 702.718 73.2623 704.889 74.6714C710.157 78.0929 714.312 82.5717 717.343 88.0609C721.227 95.0936 722.338 102.736 722.165 110.641C722.047 116.063 721.828 121.485 721.792 126.909C721.737 135.288 721.782 143.668 721.821 152.047C721.834 154.813 721.936 157.581 722.041 160.345C722.121 162.463 723.025 164.305 724.27 165.945C725.965 168.178 727.779 170.321 729.548 172.498C731.476 174.87 731.413 175.447 729.466 177.728C724.762 183.242 720.116 188.805 715.44 194.343C714.854 195.039 714.275 195.749 713.619 196.376C712.08 197.848 710.547 198.158 708.761 196.995C706.787 195.71 704.892 194.254 703.159 192.66C698.378 188.265 695.125 182.951 694.291 176.418C693.822 172.738 693.508 169.025 693.37 165.318C693.021 155.969 692.754 146.615 692.566 137.261C692.43 130.563 692.493 123.861 692.432 117.161C692.386 111.974 690.775 107.19 688.29 102.723C686.052 98.6973 681.516 97.5688 677.188 99.9992C672.107 102.853 667.135 105.904 662.159 108.939C659.6 110.5 658.566 112.91 658.604 115.879C658.68 121.78 658.646 127.682 658.737 133.583C658.803 137.949 658.717 142.346 659.223 146.668C659.58 149.729 660.804 152.69 661.659 155.69C661.789 156.141 662.03 156.56 662.194 157.003C663.068 159.366 662.745 160.465 660.81 162.077C659.044 163.55 658.009 165.405 658.068 167.766C658.21 173.552 658.252 179.345 658.544 185.124C658.727 188.746 659.061 192.39 660.871 195.698C662.245 198.208 664.006 200.286 666.478 201.82C678.603 209.341 691.737 213.914 705.95 215.238C709.05 215.526 712.205 215.224 715.334 215.213C716.675 215.208 718.045 215.084 719.351 215.309C721.041 215.601 721.567 216.828 720.93 218.434C720.836 218.669 720.73 218.905 720.6 219.121C715.93 226.891 711.335 234.709 706.558 242.412C702.627 248.753 698.005 254.566 692.249 259.393C687.515 263.364 682.195 266.071 675.962 266.752C675.83 266.767 675.708 266.866 675.581 266.925H669.67Z" fill="black"/>
<path d="M532.94 102.957C532.321 103.61 531.934 104.046 531.519 104.452C529.404 106.521 526.351 106.754 524.25 104.654C520.382 100.786 517.973 96.1774 518.226 90.5241C518.327 88.276 518.971 86.1241 520.158 84.2123C524.311 77.5231 529.968 72.7116 537.737 70.7594C541.798 69.7392 545.839 70.2463 549.819 71.4355C556.86 73.5403 563.524 76.3809 569.212 81.1666C572.277 83.7457 574.82 86.7695 576.99 90.1325C577.753 91.3151 578.607 92.4846 579.622 93.4495C580.908 94.6726 582.258 94.6939 583.685 93.618C584.634 92.902 585.479 92.0196 586.259 91.116C588.925 88.0304 591.428 84.796 594.213 81.8236C596.597 79.2784 599.494 77.359 602.94 76.4269C602.975 76.4176 603.009 76.4022 603.044 76.3935C605.998 75.6731 607.029 76.3596 607.218 79.419C607.285 80.5075 606.942 81.625 606.752 82.7239C606.705 83.0018 606.57 83.2879 606.405 83.5198C602.831 88.5216 602.22 94.4533 601.167 100.236C599.2 111.043 598.4 121.966 598.048 132.929C597.946 136.132 597.978 139.34 597.806 142.538C597.593 146.502 598.553 150.181 600.163 153.746C600.702 154.939 601.232 156.137 601.702 157.358C602.264 158.819 602.299 160.363 601.523 161.705C598.423 167.074 597.829 172.976 597.628 178.983C597.353 187.242 597.028 195.499 596.776 203.758C596.592 209.814 599.24 214.402 604.239 217.718C605.24 218.382 606.278 219.005 607.207 219.76C608.696 220.97 608.862 222.064 607.588 223.494C605.796 225.505 603.862 227.392 601.952 229.296C596.711 234.521 591.457 239.734 586.189 244.932C585.414 245.696 584.584 246.426 583.693 247.046C582.501 247.874 581.433 247.854 580.597 246.696C578.769 244.166 576.974 241.587 575.46 238.864C572.656 233.826 570.951 228.391 570.233 222.654C570.013 220.9 569.446 219.249 568.3 217.854C567.429 216.795 566.719 216.506 565.532 217.136C564.131 217.881 562.694 218.702 561.569 219.794C552.489 228.6 543.477 237.475 534.449 246.335C532.009 248.729 530.95 248.758 528.551 246.266C523.082 240.585 519.13 233.918 515.7 226.864C511.566 218.362 509.839 209.403 509.872 200.019C509.881 197.372 509.547 194.721 509.607 192.077C509.763 185.173 512.355 179.134 516.425 173.645C520.243 168.495 524.89 164.123 529.386 159.6C532.518 156.447 535.976 153.755 539.743 151.432C539.805 151.393 539.858 151.339 539.923 151.306C544.381 149.041 545.774 145.017 546.216 140.426C546.3 139.549 546.199 138.25 547.209 138.105C548.308 137.947 549.656 138.188 550.62 138.737C552.061 139.56 552.762 142.72 552.156 144.308C551.216 146.772 549.436 148.576 547.481 150.253C542.217 154.77 538.431 160.275 536.301 166.9C534.918 171.201 534.235 175.62 534.19 180.113C534.113 188.038 534.645 195.916 537.02 203.541C538.648 208.768 541.338 213.396 545.418 217.135C548.363 219.834 551.743 220.453 555.456 219.023C558.927 217.685 562.052 215.759 564.73 213.169C568.34 209.678 569.325 205.306 568.601 200.53C567.907 195.948 567.273 191.375 567.476 186.732C567.648 182.806 567.925 178.883 568.112 174.957C568.307 170.859 567.731 166.955 564.998 163.654C564.301 162.813 563.523 162.029 562.904 161.135C561.295 158.813 561.75 156.908 564.182 155.464C564.464 155.297 564.76 155.154 565.049 155C566.497 154.233 567.275 153.007 567.308 151.396C567.477 143.169 567.736 134.941 567.725 126.713C567.713 117.072 566.795 107.519 563.945 98.2396C562.054 92.0815 558.865 86.5759 555.217 81.3324C553.528 78.9042 551.004 77.4454 548.267 76.4028C543.367 74.5364 538.37 74.0988 533.249 75.4051C527.067 76.9821 524.232 82.8869 523.868 86.8576C523.361 92.3807 525.6 96.6697 529.862 100.063C530.956 100.934 531.909 101.979 532.94 102.957Z" fill="black"/>
<path d="M386.51 97.3833C388.965 94.7128 391.424 92.0801 393.836 89.4053C396.447 86.5111 399.104 83.6497 401.56 80.6281C402.587 79.3645 403.172 77.7361 403.912 76.2505C404.348 75.3736 404.616 74.4087 405.095 73.5592C406.276 71.468 408.034 70.7263 410.362 71.328C411.236 71.5539 412.104 71.8838 412.904 72.3022C417.252 74.5783 420.857 77.7465 423.488 81.8692C424.309 83.1574 424.581 84.8591 424.861 86.4159C426.449 95.2166 427.2 104.101 427.116 113.04C427.028 122.431 426.702 131.821 426.653 141.212C426.611 149.247 427.648 157.179 429.441 165.021C429.98 167.374 431.176 169.228 432.872 170.841C435.659 173.49 438.787 175.558 442.577 176.495C444.61 176.998 446.277 176.525 447.654 174.869C448.956 173.302 450.399 171.852 451.754 170.328C452.424 169.576 453.11 169.537 453.981 169.991C457.502 171.828 457.901 175.741 454.73 178.145C451.363 180.698 447.436 181.297 443.342 181.14C439.504 180.992 436.009 179.748 432.701 177.837C431.005 176.857 429.2 176.066 427.125 175.03C427.125 176.357 427.149 177.458 427.121 178.557C427.014 182.816 426.684 187.08 426.813 191.33C427.093 200.571 429.69 209.108 435.366 216.543C438.34 220.438 442.171 223.308 446.618 225.354C450 226.909 451.757 226.51 454.238 223.689C458.504 218.837 461.098 213.186 462.352 206.88C463.554 200.833 463.476 194.718 463.434 188.597C463.352 176.65 463.348 164.703 463.244 152.756C463.138 140.483 462.957 128.212 462.791 115.94C462.763 113.903 462.607 111.867 462.57 109.829C462.488 105.207 460.335 101.871 456.322 99.6785C454.664 98.7737 452.984 97.9106 451.207 96.9714C452.773 95.53 454.345 94.2703 455.695 92.8076C460.192 87.9382 464.609 82.9944 469.06 78.0818C470.747 76.2198 472.344 74.2621 474.157 72.5303C476.79 70.0141 479.353 69.9988 482.16 72.3071C486.782 76.1071 489.285 81.151 490.573 86.8721C491.763 92.1578 491.991 97.5485 492.137 102.933C492.353 110.795 492.415 118.66 492.604 126.523C492.766 133.292 492.996 140.059 493.236 146.826C493.288 148.278 493.403 149.748 493.708 151.163C493.916 152.128 494.427 153.059 494.949 153.917C495.418 154.686 496.077 155.342 496.668 156.034C498.678 158.387 498.847 160.113 497.097 162.643C495.152 165.456 493.882 168.53 493.413 171.888C493.012 174.767 492.745 177.673 492.575 180.575C492.227 186.524 491.062 192.254 488.395 197.627C486.44 201.565 483.677 204.851 480.444 207.812C473.27 214.383 466.131 220.993 459.037 227.649C453.165 233.159 447.42 238.806 441.521 244.287C439.991 245.709 438.161 246.846 436.352 247.921C433.918 249.368 431.415 249.096 429.258 247.328C423.873 242.918 418.362 238.65 413.169 234.025C407.314 228.811 402.657 222.638 399.84 215.213C398.383 211.374 397.944 207.383 397.869 203.324C397.763 197.499 397.844 191.663 397.491 185.853C397.107 179.536 396.314 173.244 395.71 166.94C395.558 165.354 394.531 164.327 393.475 163.31C392.873 162.729 392.2 162.208 391.671 161.568C390.598 160.271 390.726 159.189 391.985 158.044C392.093 157.946 392.201 157.847 392.322 157.766C395.946 155.348 397.308 151.785 397.269 147.628C397.198 140.019 396.965 132.411 396.91 124.802C396.882 121.128 397.217 117.451 397.169 113.779C397.141 111.724 396.86 109.627 396.351 107.636C395.193 103.103 392.225 100.04 387.982 98.1622C387.55 97.9713 387.113 97.7919 386.679 97.6031C386.652 97.5911 386.636 97.5501 386.51 97.3833Z" fill="black"/>
<path d="M303.016 164.652C303.449 175.528 303.879 186.405 304.319 197.28C304.515 202.118 304.697 206.957 304.955 211.792C305.133 215.126 306.803 217.533 309.779 219.067C310.518 219.447 311.247 219.894 311.873 220.434C313.201 221.582 313.43 222.961 312.498 224.435C312.02 225.194 311.388 225.889 310.711 226.481C305.498 231.039 300.267 235.579 295.017 240.094C293.172 241.68 291.78 243.532 291.14 245.905C291.065 246.183 290.934 246.449 290.807 246.71C289.916 248.544 288.549 248.933 286.904 247.723C282.069 244.17 278.368 239.736 276.245 234.051C274.247 228.698 273.543 223.12 273.197 217.475C272.262 202.192 272.555 186.891 272.577 171.594C272.583 167.767 271.737 164.304 268.721 161.649C268.445 161.406 268.262 160.981 268.18 160.608C267.922 159.433 268.034 158.372 268.849 157.333C271.666 153.74 272.801 149.507 273.181 145.051C273.501 141.281 273.5 137.474 273.993 133.729C274.982 126.205 278.335 119.684 283.023 113.786C286.35 109.602 290.29 106.025 294.19 102.41C301.915 95.2523 309.618 88.0702 317.431 81.0106C320.754 78.0081 324.31 75.26 327.813 72.4621C328.59 71.8418 329.563 71.4315 330.497 71.0486C331.555 70.6149 332.593 70.762 333.648 71.2948C340.834 74.9252 347.71 79.0277 353.564 84.6213C360.664 91.4058 365.847 99.3701 367.365 109.217C368.06 113.728 368.077 118.355 368.222 122.935C368.499 131.704 368.604 140.479 368.87 149.249C368.963 152.303 370.337 154.764 372.966 156.454C373.392 156.728 373.802 157.049 374.155 157.41C375.111 158.386 375.29 159.404 374.588 160.588C374.13 161.36 373.509 162.047 372.9 162.716C370.943 164.864 369.058 167.083 368.741 170.101C368.54 172.014 368.612 173.959 368.615 175.889C368.626 183.54 368.642 191.191 368.689 198.842C368.71 202.374 368.799 205.905 368.866 209.436C368.944 213.486 371.044 216.341 374.279 218.517C375.186 219.127 376.126 219.694 376.989 220.361C378.809 221.767 378.99 222.94 377.529 224.696C376.179 226.317 374.673 227.808 373.255 229.374C369.318 233.722 365.456 238.142 361.425 242.402C359.938 243.973 358.15 245.307 356.342 246.513C354.028 248.058 352.332 247.793 350.382 245.797C345.128 240.42 341.836 233.986 340.186 226.683C339.098 221.865 338.695 216.97 338.663 212.047C338.619 205.344 338.323 198.619 338.752 191.943C339.118 186.254 338.58 180.64 338.446 174.995C338.31 169.319 338.004 163.647 337.716 157.975C337.663 156.936 337.474 155.859 337.115 154.885C335.296 149.956 332.062 146.172 327.547 143.49C325.582 142.324 323.517 142.133 321.357 142.976C319.866 143.559 318.538 144.269 317.27 145.352C315.429 146.926 312.994 147.441 310.564 147.626C310.354 147.642 310.087 147.453 309.912 147.29C308.467 145.954 308.39 144.539 309.286 142.849C311.047 139.53 314.105 138.525 317.468 137.942C322.761 137.024 327.685 137.867 332.203 140.874C333.227 141.555 334.331 142.155 335.468 142.625C337.025 143.27 337.941 142.801 338.294 141.156C338.568 139.885 338.684 138.566 338.736 137.263C338.921 132.534 339.012 127.801 339.206 123.073C339.557 114.525 336.024 107.654 329.928 101.994C327.132 99.3975 324.053 97.0979 321.034 94.7496C320.101 94.0237 318.979 93.5046 317.882 93.0304C316.307 92.3499 314.809 92.6655 313.469 93.7114C313.068 94.0243 312.659 94.3486 312.336 94.7359C307.337 100.72 303.516 107.243 303.194 115.293C302.966 120.966 302.712 126.642 302.666 132.319C302.606 139.82 302.743 147.322 302.782 154.824C302.799 158.099 302.785 161.375 302.785 164.65C302.861 164.651 302.938 164.651 303.016 164.652Z" fill="black"/>
<path d="M232.385 214.178C235.064 212.27 237.728 212.571 240.379 214.178C245.563 217.321 250.619 224.553 247.063 234.177C245.977 237.117 244.349 239.719 241.771 241.513C237.877 244.224 233.74 246.616 229.148 247.883C220.959 250.145 213.285 248.483 206.06 244.252C200.09 240.757 195.168 236.109 190.909 230.706C189.714 229.19 188.485 227.693 187.177 226.276C185.084 224.006 183.424 223.887 181.164 225.968C178.564 228.362 176.131 230.937 173.55 233.352C169.932 236.738 166.279 240.088 162.558 243.36C161.815 244.013 160.732 244.377 159.744 244.626C158.596 244.915 157.38 244.931 156.082 245.077C156.392 242.837 156.533 240.73 157.738 238.766C161.753 232.223 164.713 225.226 165.757 217.579C166.296 213.621 166.409 209.605 166.665 205.611C167.436 193.623 168.197 181.634 168.919 169.643C168.988 168.492 168.852 167.308 168.651 166.168C168.23 163.784 166.837 162.085 164.822 161.151C165.723 158.217 166.741 155.415 167.432 152.533C168.673 147.359 168.757 142.057 168.535 136.777C168.224 129.396 167.745 122.021 167.282 114.647C167.139 112.366 167 110.057 166.531 107.83C165.767 104.199 163.557 101.573 160.206 99.9322C159.944 99.8042 159.677 99.6871 159.414 99.5624C156.671 98.2606 156.444 97.032 158.565 94.9031C165.228 88.2127 171.89 81.5213 178.564 74.8429C179.283 74.1231 180.04 73.4273 180.853 72.8174C182.789 71.3656 184.384 71.4056 185.955 73.2626C187.618 75.228 189.123 77.3504 190.503 79.5269C193.268 83.8892 195.077 88.6158 195.446 93.8238C195.465 94.1039 195.55 94.3993 195.679 94.6498C196.94 97.108 198.218 99.558 199.515 102.055C202.222 100.525 204.882 99.0603 207.066 96.8307C214.387 89.3592 221.765 81.943 229.124 74.5076C229.457 74.1712 229.793 73.8326 230.16 73.5351C232.298 71.8016 234.417 71.5194 236.544 73.2577C239.068 75.3199 241.497 77.573 243.604 80.0509C248.674 86.0138 251.628 93.0892 253.705 100.557C255.514 107.064 256.864 113.654 256.876 120.444C256.904 136.404 250.13 148.997 237.698 158.722C235.319 160.583 232.711 162.148 230.298 163.968C228.238 165.524 226.294 167.236 224.321 168.904C222.682 170.289 221.733 172.106 221.083 174.122C220.249 176.712 219.354 179.28 218.462 181.927C217.797 181.712 217.217 181.529 216.64 181.336C213.467 180.266 212.253 177.175 214.168 174.419C215.548 172.434 217.181 170.57 218.949 168.916C226.129 162.202 230.683 154.141 231.962 144.342C232.737 138.401 232.275 132.503 231.281 126.622C230.164 120.018 228.161 113.697 225.454 107.58C223.607 103.405 220.774 100.384 216.093 99.5619C213.065 99.0307 210.243 99.779 207.561 101.207C205.893 102.095 204.206 102.952 202.489 103.741C199.55 105.093 197.902 107.343 197.892 110.567C197.868 118.505 197.954 126.444 197.985 134.382C198 138.169 197.949 141.957 198.01 145.742C198.036 147.338 198.159 148.95 198.437 150.519C199.172 154.661 201.664 157.51 205.505 159.486C205.056 159.719 204.731 159.9 204.396 160.06C199.819 162.249 197.524 165.969 197.47 170.943C197.34 182.744 197.379 194.547 199 206.272C200.239 215.229 202.6 223.867 206.704 231.973C208.296 235.118 210.272 237.998 212.924 240.349C218.672 245.444 225.172 246.343 232.137 243.362C234.621 242.298 236.981 240.823 239.173 239.229C242.664 236.691 243.912 231.48 242.445 226.811C241.647 224.269 240.232 222.155 238.091 220.547C237.187 219.869 236.298 219.167 235.357 218.545C233.744 217.478 232.906 215.919 232.385 214.178Z" fill="black"/>
<path d="M35 143.835C37.359 141.033 39.7021 138.217 42.0814 135.433C45.4896 131.443 48.9318 127.483 52.3444 123.497C54.5787 120.888 56.5047 120.621 59.254 122.656C64.9971 126.908 68.5888 132.669 70.8865 139.323C73.032 145.535 73.9991 151.949 74.2339 158.5C74.5202 166.49 73.7238 174.428 73.2438 182.385C72.8952 188.162 72.7293 193.949 72.4228 199.728C72.2816 202.385 72.0194 205.029 72.7408 207.65C73.6636 211.003 75.5213 213.8 77.8808 216.289C78.8573 217.319 79.8671 218.332 80.9552 219.24C83.3115 221.209 85.6059 221.34 88.1964 219.717C89.0596 219.176 89.8866 218.572 90.6934 217.949C95.2871 214.399 100.228 211.535 105.894 210.022C107.947 209.473 108.782 208.313 108.731 206.171C108.46 194.67 108.157 183.17 107.862 171.669C107.818 169.935 107.124 168.419 106.23 166.983C104.833 164.737 103.858 162.324 103.234 159.758C102.983 158.728 103.141 157.899 103.866 157.047C106.407 154.061 107.113 150.441 107.201 146.657C107.267 143.817 107.37 140.971 107.253 138.136C107.102 134.481 107.117 130.761 106.403 127.199C105.184 121.111 101.095 116.97 95.9291 113.832C90.019 110.243 83.5189 108.095 76.9115 106.249C69.927 104.299 62.7914 103.334 55.5425 103.212C54.6323 103.197 53.721 103.255 52.8097 103.281C49.5831 103.373 48.9855 103.256 45.7972 101.898C46.268 99.8168 46.7857 97.7853 48.0019 95.932C53.7336 87.1937 59.3421 78.375 65.1028 69.6569C67.5111 66.0117 70.1322 62.4983 73.3555 59.4925C80.6903 52.6518 89.2084 50.5535 98.9389 52.9592C106.273 54.773 113.692 56.1285 121.28 56.2554C125.558 56.3271 129.798 55.9321 133.982 54.9973C134.655 54.8469 135.345 54.6844 136.027 54.6893C137.672 54.7014 138.526 55.744 138.184 57.3494C137.653 59.8366 136.391 62.0224 134.649 63.7843C131.836 66.6281 128.912 69.3889 125.824 71.9302C121.331 75.6285 115.962 76.2772 110.408 75.483C103.629 74.5142 96.882 73.3289 90.117 72.2628C85.1144 71.4746 80.1079 70.711 75.0982 69.9681C72.604 69.5984 70.3993 70.2859 68.5406 71.9953C65.822 74.4957 64.6146 77.7503 63.8029 81.3517C95.8832 82.8308 122.72 94.6559 142.755 120.241C141.953 120.949 141.125 121.6 140.39 122.343C137.862 124.901 137.143 128.128 137.143 131.569C137.144 136.515 137.219 141.461 137.243 146.407C137.271 151.897 139.48 155.894 144.996 157.658C145.076 157.778 145.156 157.898 145.236 158.018C144.786 158.321 144.267 158.558 143.897 158.938C140.051 162.893 137.937 167.7 137.731 173.145C137.534 178.372 137.759 183.618 137.93 188.852C138.138 195.191 138.233 201.521 137.454 207.83C136.19 218.059 132.947 227.457 125.789 235.176C121.123 240.208 115.495 243.86 109.121 246.314C107.727 246.851 106.067 246.695 104.27 246.886C104.582 244.951 104.722 243.285 105.131 241.688C107.12 233.933 108.012 226.022 108.65 218.07C108.677 217.745 108.709 217.415 108.687 217.091C108.546 215.003 107.44 214.189 105.452 214.842C102.876 215.689 100.48 216.897 98.3713 218.644C90.2018 225.41 81.988 232.123 73.8612 238.94C71.0731 241.279 68.5056 243.879 65.8077 246.327C65.1925 246.886 64.4914 247.374 63.7673 247.783C62.4449 248.529 61.3486 248.387 60.2977 247.306C59.6426 246.632 59.1007 245.844 58.5364 245.085C56.5852 242.459 54.7308 239.755 52.6838 237.205C48.72 232.269 46.3046 226.648 45.5613 220.435C44.8536 214.515 44.4492 208.546 44.2122 202.588C43.7234 190.293 43.4163 177.992 43.0775 165.692C43.0047 163.036 43.0836 160.375 43.1427 157.716C43.239 153.41 41.2872 150.295 37.7312 147.999C36.7219 147.347 35.9047 146.398 35 145.584V143.835Z" fill="black"/>
</svg>
