<svg width="800" height="800" viewBox="0 0 800 800" fill="none" xmlns="http://www.w3.org/2000/svg">
<path d="M617.5 400C617.5 372.078 612.264 345.465 602.751 321.036L670.304 294.698C683.034 327.391 690 362.928 690 400C690 560.263 560.162 690.182 399.999 690.182H378.765L425.632 737.079L426.285 737.749C439.785 751.96 439.567 774.432 425.632 788.376C411.697 802.32 389.238 802.538 375.037 789.03L374.367 788.376L265.617 679.558C258.819 672.756 255 663.529 255 653.909C255 644.289 258.819 635.063 265.617 628.26L374.367 519.442L375.037 518.789C389.239 505.28 411.697 505.498 425.632 519.442C439.789 533.608 439.789 556.574 425.632 570.74L378.766 617.636H399.999C520.122 617.636 617.5 520.197 617.5 400ZM110 400C110 239.737 239.837 109.819 399.999 109.818H421.234L374.367 62.9214L373.714 62.2509C360.214 48.0404 360.432 25.5679 374.367 11.6239C388.302 -2.32009 410.76 -2.53774 424.962 10.9703L425.632 11.6239L534.382 120.442C548.539 134.607 548.539 157.574 534.382 171.74L425.632 280.558C411.476 294.723 388.523 294.723 374.367 280.558C360.21 266.392 360.21 243.426 374.367 229.26L421.234 182.363H399.999C279.878 182.363 182.5 279.803 182.499 400C182.499 427.048 187.415 452.87 196.369 476.668L197.249 478.966L197.577 479.843C204.224 498.286 194.993 518.773 176.63 525.931C158.266 533.089 137.617 524.25 130.044 506.167L129.694 505.299L129.101 503.765C116.75 471.497 110 436.493 110 400ZM623.367 274.069C642.021 266.796 663.035 276.032 670.304 294.698L602.751 321.036C595.483 302.37 604.713 281.342 623.367 274.069Z" fill="black"/>
</svg>
