<svg width="624" height="623" viewBox="0 0 624 623" fill="none" xmlns="http://www.w3.org/2000/svg">
<rect width="623" height="623" transform="translate(0.242188)" fill="white"/>
<path d="M507.36 228.395C515.171 228.395 519.077 228.394 522.061 229.914C524.685 231.251 526.819 233.385 528.156 236.01C529.676 238.993 529.677 242.9 529.677 250.711L529.677 256.057C529.677 263.868 529.676 267.774 528.156 270.758C526.819 273.382 524.685 275.516 522.061 276.854C519.077 278.374 515.171 278.374 507.36 278.374L502.014 278.374C494.202 278.374 490.296 278.374 487.312 276.854C484.688 275.516 482.554 273.382 481.217 270.758C479.697 267.774 479.697 263.868 479.697 256.057L479.697 250.711C479.697 242.9 479.697 238.993 481.217 236.01C482.554 233.385 484.688 231.251 487.312 229.914C490.296 228.394 494.202 228.395 502.014 228.395L507.36 228.395ZM509.336 244.667C508.826 244.667 508.345 244.89 508.017 245.271L507.886 245.443L500.037 257.214L496.839 252.417C496.556 251.993 496.104 251.717 495.604 251.654L495.389 251.641L490.739 251.641C489.776 251.641 488.996 252.421 488.996 253.384C488.996 254.347 489.776 255.128 490.739 255.128L494.455 255.128L498.587 261.325C498.91 261.81 499.455 262.102 500.038 262.102C500.621 262.101 501.165 261.81 501.488 261.325L509.336 249.553L512.535 254.352C512.859 254.836 513.403 255.128 513.985 255.128L518.635 255.128L518.813 255.118C519.692 255.028 520.378 254.286 520.378 253.384C520.378 252.482 519.692 251.739 518.813 251.649L518.635 251.641L514.919 251.641L510.787 245.443C510.464 244.958 509.919 244.667 509.336 244.667Z" fill="#434343"/>
<path d="M508.996 148.195C512.615 148.195 514.139 148.209 515.546 148.562L516.029 148.694C517.15 149.025 518.218 149.515 519.2 150.15L519.429 150.303C520.563 151.087 521.636 152.222 523.978 154.73L524.251 155.023C519.673 160.777 512.611 164.468 504.687 164.468C496.762 164.468 489.7 160.778 485.122 155.024L485.397 154.73L487.025 152.997C488.433 151.518 489.257 150.744 490.175 150.15L490.602 149.888C491.608 149.294 492.695 148.847 493.829 148.562L494.097 148.5C495.436 148.208 496.987 148.195 500.376 148.195C501.066 149.899 502.736 151.101 504.687 151.101C506.637 151.101 508.306 149.899 508.996 148.195ZM504.687 114.488C518.488 114.488 529.677 125.676 529.677 139.478C529.677 144.073 528.434 148.377 526.27 152.076C524.19 149.848 522.881 148.452 521.403 147.43L521.094 147.223C519.831 146.406 518.457 145.776 517.017 145.351L516.395 145.181C514.476 144.699 512.447 144.708 508.996 144.708C508.52 143.532 507.578 142.597 506.398 142.129C506.419 142.023 506.431 141.914 506.431 141.803V132.504C506.431 131.541 505.65 130.761 504.688 130.761C503.725 130.761 502.944 131.541 502.944 132.504V141.803C502.944 141.914 502.957 142.022 502.977 142.128C501.796 142.595 500.852 143.532 500.376 144.708C497.144 144.708 495.159 144.7 493.344 145.096L492.98 145.181C491.522 145.547 490.124 146.121 488.83 146.884L488.282 147.223C487.029 148.033 485.937 149.079 484.466 150.627L483.104 152.079C480.939 148.379 479.697 144.074 479.697 139.478C479.697 125.676 490.885 114.488 504.687 114.488ZM486.091 137.734C485.128 137.735 484.347 138.515 484.347 139.478C484.347 140.44 485.128 141.221 486.091 141.222H489.19C490.153 141.221 490.933 140.44 490.934 139.478C490.933 138.515 490.153 137.735 489.19 137.734H486.091ZM520.185 137.734C519.222 137.735 518.442 138.515 518.441 139.478C518.442 140.44 519.222 141.221 520.185 141.222H523.284C524.247 141.222 525.028 140.44 525.028 139.478C525.028 138.515 524.247 137.734 523.284 137.734H520.185ZM518.318 125.847C517.638 125.166 516.533 125.166 515.853 125.847L513.786 127.913C513.106 128.594 513.106 129.698 513.786 130.379C514.467 131.06 515.571 131.059 516.252 130.379L518.318 128.312C518.999 127.632 518.999 126.528 518.318 125.847ZM493.39 125.728C492.705 125.169 491.695 125.209 491.057 125.847C490.419 126.485 490.379 127.496 490.938 128.181L491.057 128.312L493.123 130.379L493.256 130.499C493.941 131.057 494.951 131.017 495.589 130.379C496.227 129.741 496.267 128.731 495.708 128.046L495.589 127.913L493.522 125.847L493.39 125.728ZM504.688 119.138C503.725 119.138 502.944 119.918 502.944 120.881V123.98C502.945 124.943 503.725 125.723 504.688 125.724C505.65 125.724 506.43 124.943 506.431 123.98V120.881C506.431 119.918 505.65 119.138 504.688 119.138Z" fill="#434343"/>
<path d="M253.046 458.531C259.555 458.531 262.811 458.531 265.297 459.798C267.484 460.912 269.262 462.691 270.376 464.878C271.643 467.364 271.644 470.619 271.644 477.128V485.265C271.644 491.774 271.643 495.028 270.376 497.515C269.262 499.702 267.484 501.48 265.297 502.595C262.811 503.862 259.555 503.861 253.046 503.861H240.261C233.751 503.861 230.496 503.862 228.01 502.595C225.823 501.48 224.045 499.702 222.931 497.515C221.664 495.028 221.664 491.774 221.664 485.265V477.128C221.664 470.619 221.664 467.364 222.931 464.878C224.045 462.691 225.823 460.912 228.01 459.798C230.496 458.531 233.751 458.531 240.261 458.531H253.046ZM262.052 470.931C261.551 470.18 260.569 469.943 259.788 470.355L259.635 470.447L257.31 471.996C253.714 474.393 252.064 475.474 250.489 476.017L250.175 476.118C247.879 476.81 245.429 476.81 243.133 476.118C241.664 475.676 240.24 474.809 237.337 472.887L235.998 471.996L233.673 470.447L233.52 470.355C232.739 469.942 231.757 470.18 231.256 470.931C230.755 471.682 230.914 472.68 231.596 473.242L231.739 473.348L234.063 474.897L236.54 476.539C238.783 478.001 240.406 478.939 242.127 479.457C245.079 480.346 248.229 480.346 251.181 479.457L251.609 479.318C253.746 478.582 255.825 477.177 259.244 474.897L261.568 473.348L261.712 473.242C262.394 472.68 262.552 471.682 262.052 470.931Z" fill="#434343"/>
<path d="M122.126 342.342C123.285 341.447 124.798 341.15 126.209 341.54C126.78 341.698 127.366 342.036 128.536 342.712L131.729 344.555C132.895 345.228 133.478 345.565 133.899 345.979C134.946 347.007 135.446 348.469 135.248 349.923C135.168 350.508 134.914 351.132 134.404 352.378L133.796 353.865C133.362 354.926 133.516 356.122 134.09 357.113C134.663 358.104 135.625 358.841 136.759 358.995L138.349 359.212C139.684 359.394 140.352 359.485 140.899 359.709C142.256 360.265 143.272 361.428 143.639 362.848C143.787 363.42 143.787 364.095 143.787 365.443V369.131C143.787 370.479 143.787 371.153 143.639 371.726C143.272 373.145 142.256 374.309 140.899 374.864C140.352 375.088 139.684 375.179 138.349 375.362L136.759 375.578C135.625 375.733 134.663 376.47 134.09 377.46C133.516 378.452 133.363 379.647 133.797 380.708L134.404 382.195C134.914 383.441 135.168 384.065 135.248 384.651C135.446 386.104 134.946 387.567 133.899 388.595C133.478 389.009 132.895 389.345 131.729 390.019L128.536 391.862C127.366 392.537 126.78 392.875 126.209 393.033C124.798 393.424 123.285 393.126 122.126 392.231C121.657 391.868 121.243 391.334 120.415 390.266L119.433 388.998C118.732 388.093 117.617 387.627 116.473 387.627C115.328 387.627 114.214 388.092 113.513 388.997L112.53 390.266C111.702 391.334 111.288 391.869 110.819 392.232C109.661 393.127 108.148 393.425 106.736 393.034C106.165 392.876 105.58 392.538 104.409 391.862L101.218 390.019C100.051 389.345 99.4674 389.009 99.0459 388.595C97.9992 387.567 97.4994 386.104 97.6973 384.651C97.777 384.065 98.0315 383.442 98.541 382.195L99.1494 380.708C99.5829 379.647 99.4294 378.452 98.8555 377.46C98.2822 376.47 97.3204 375.733 96.1865 375.578L94.5967 375.362C93.2613 375.179 92.5931 375.088 92.0459 374.864C90.6889 374.309 89.6737 373.145 89.3066 371.726C89.1586 371.153 89.1582 370.479 89.1582 369.131V365.443C89.1582 364.095 89.1586 363.42 89.3066 362.848C89.6737 361.428 90.6889 360.265 92.0459 359.709C92.5931 359.485 93.2613 359.394 94.5967 359.212L96.1865 358.995C97.3207 358.841 98.2822 358.103 98.8555 357.112C99.4293 356.121 99.5828 354.926 99.1494 353.865L98.541 352.378C98.0313 351.131 97.7769 350.508 97.6973 349.922C97.4995 348.468 97.9993 347.007 99.0459 345.979C99.4674 345.565 100.051 345.227 101.218 344.554L104.409 342.711C105.58 342.035 106.166 341.697 106.737 341.539C108.148 341.149 109.661 341.447 110.819 342.342C111.288 342.705 111.703 343.238 112.53 344.307L113.514 345.576C114.215 346.481 115.328 346.946 116.473 346.946C117.617 346.946 118.732 346.48 119.433 345.575L120.415 344.308C121.243 343.239 121.657 342.705 122.126 342.342ZM116.473 360.315C112.621 360.315 109.499 363.437 109.499 367.288C109.499 371.14 112.621 374.262 116.473 374.262C120.324 374.262 123.446 371.14 123.446 367.288C123.446 363.437 120.324 360.315 116.473 360.315Z" fill="#434343"/>
<g clip-path="url(#clip0_10564_61013)">
<path d="M104.575 481.705C96.6059 478.64 92.6212 477.107 91.6189 475.049C90.7521 473.27 90.851 471.171 91.8813 469.48C93.0726 467.526 97.1838 466.375 105.406 464.072L128.641 457.567C133.847 456.109 136.45 455.38 138.236 456.057C139.793 456.646 141.023 457.876 141.612 459.433C142.289 461.219 141.56 463.822 140.102 469.028L133.596 492.263C131.294 500.485 130.143 504.596 128.188 505.788C126.498 506.818 124.399 506.917 122.619 506.05C120.561 505.048 119.029 501.063 115.964 493.093L114.353 488.906C114.039 488.089 113.882 487.681 113.873 487.275C113.866 486.916 113.941 486.561 114.094 486.236C114.267 485.869 114.576 485.559 115.195 484.941L121.123 479.012C121.804 478.331 121.804 477.227 121.123 476.546V476.546C120.442 475.866 119.338 475.866 118.657 476.546L112.729 482.475C112.111 483.093 111.801 483.403 111.434 483.575C111.109 483.728 110.754 483.804 110.395 483.796C109.989 483.787 109.581 483.63 108.764 483.316L104.575 481.705Z" fill="#434343"/>
</g>
<path d="M253.628 261.517C257.523 261.517 260.777 264.255 261.575 267.91L267.575 267.91L267.754 267.919C268.633 268.008 269.319 268.751 269.319 269.653C269.319 270.556 268.633 271.298 267.754 271.388L267.575 271.396L261.575 271.396C260.777 275.052 257.523 277.789 253.628 277.789C249.134 277.789 245.491 274.147 245.491 269.653C245.491 265.16 249.134 261.517 253.628 261.517ZM239.858 267.919C240.737 268.008 241.424 268.751 241.424 269.653C241.424 270.556 240.737 271.298 239.858 271.388L239.68 271.396L221.083 271.396C220.12 271.396 219.34 270.616 219.34 269.653C219.34 268.69 220.12 267.91 221.083 267.91L239.68 267.91L239.858 267.919ZM235.03 245.245C239.524 245.245 243.167 248.887 243.167 253.381C243.167 257.874 239.524 261.517 235.03 261.517C231.135 261.516 227.881 258.78 227.083 255.124L221.083 255.124C220.12 255.124 219.34 254.344 219.34 253.381C219.34 252.418 220.12 251.638 221.083 251.638L227.083 251.638C227.881 247.982 231.135 245.245 235.03 245.245ZM267.754 251.646C268.633 251.736 269.319 252.478 269.319 253.381C269.319 254.283 268.633 255.026 267.754 255.115L267.575 255.124L248.979 255.124C248.016 255.124 247.235 254.344 247.235 253.381C247.235 252.418 248.016 251.638 248.979 251.638L267.575 251.638L267.754 251.646ZM253.628 228.973C257.523 228.973 260.777 231.71 261.575 235.365L267.575 235.365L267.754 235.374C268.633 235.463 269.319 236.206 269.319 237.108C269.319 238.011 268.633 238.753 267.754 238.843L267.575 238.852L261.575 238.852C260.777 242.507 257.523 245.245 253.628 245.245C249.134 245.245 245.491 241.602 245.491 237.108C245.491 232.615 249.134 228.973 253.628 228.973ZM239.858 235.374C240.737 235.463 241.424 236.206 241.424 237.108C241.424 238.011 240.737 238.753 239.858 238.843L239.68 238.852L221.083 238.852C220.12 238.852 219.34 238.071 219.34 237.108C219.34 236.146 220.12 235.365 221.083 235.365L239.68 235.365L239.858 235.374Z" fill="#434343"/>
<path d="M117.103 228.395C118.399 228.395 119.527 228.365 120.524 228.757L120.825 228.887C121.517 229.211 122.131 229.682 122.622 230.27L122.747 230.427C123.351 231.228 123.664 232.249 124.049 233.402L124.705 235.369H137.396C138.358 235.369 139.14 236.149 139.14 237.112C139.139 238.074 138.358 238.856 137.396 238.856H134.391L132.986 262.729C132.843 265.165 132.73 267.095 132.515 268.646C132.31 270.119 131.997 271.376 131.401 272.518L131.278 272.746C130.247 274.578 128.716 276.076 126.867 277.066L126.493 277.257C125.253 277.862 123.91 278.125 122.328 278.251C120.767 278.376 118.834 278.375 116.394 278.375H111.905C109.465 278.375 107.531 278.376 105.971 278.251C104.488 278.133 103.215 277.894 102.04 277.367L101.806 277.257C99.9158 276.336 98.3302 274.895 97.2334 273.108L97.0205 272.746C96.3441 271.543 96.0029 270.218 95.7842 268.646C95.5684 267.095 95.4558 265.165 95.3125 262.729L93.9092 238.856H90.9033C89.9406 238.856 89.1605 238.074 89.1602 237.112C89.1603 236.149 89.9405 235.369 90.9033 235.369H103.595L104.25 233.402L104.55 232.508C104.848 231.647 105.161 230.886 105.677 230.27L105.895 230.025C106.42 229.471 107.061 229.038 107.774 228.757L107.963 228.689C108.676 228.449 109.454 228.403 110.312 228.395H117.103ZM109.5 246.992C108.537 246.992 107.757 247.772 107.757 248.735V265.007C107.757 265.97 108.537 266.75 109.5 266.751C110.463 266.751 111.243 265.97 111.243 265.007V248.735C111.243 247.772 110.463 246.992 109.5 246.992ZM118.799 246.992C117.836 246.992 117.055 247.772 117.055 248.735V258.034C117.055 258.996 117.836 259.777 118.799 259.777C119.761 259.777 120.542 258.996 120.542 258.034V248.735C120.542 247.772 119.762 246.992 118.799 246.992ZM111.197 231.881C109.803 231.881 109.383 231.904 109.145 231.971L109.051 232.002C108.847 232.083 108.661 232.2 108.502 232.348L108.352 232.506C108.191 232.699 108.062 232.992 107.558 234.504L107.27 235.369H121.029L120.741 234.504C120.3 233.182 120.146 232.791 120.007 232.585L119.947 232.506C119.807 232.339 119.637 232.199 119.446 232.095L119.248 232.002C119.015 231.911 118.696 231.881 117.103 231.881H111.197Z" fill="#434343"/>
<path d="M377.648 114.488C382.856 114.488 385.46 114.488 387.449 115.501C389.198 116.392 390.621 117.815 391.512 119.564C392.526 121.553 392.526 124.158 392.526 129.365L392.526 135.605C392.526 139.017 392.526 140.723 392.14 142.328C391.799 143.751 391.235 145.112 390.47 146.359C389.608 147.767 388.402 148.974 385.99 151.386L373.226 164.149C373.023 164.353 372.746 164.468 372.458 164.468C367.776 164.468 364.619 159.68 366.464 155.377L368.546 150.52C369.017 149.419 368.21 148.195 367.012 148.195L363.986 148.195C358.256 148.195 355.39 148.195 353.319 147.073C351.304 145.982 349.762 144.186 348.99 142.028C348.197 139.811 348.633 136.978 349.505 131.314L350.152 127.104C350.841 122.626 351.186 120.387 352.283 118.705C353.25 117.223 354.62 116.047 356.232 115.316C358.061 114.488 360.327 114.488 364.856 114.488L377.648 114.488ZM397.754 116.813C398.656 116.813 399.398 117.498 399.488 118.377L399.497 118.556L399.497 146.451C399.497 147.414 398.717 148.194 397.754 148.194C396.851 148.194 396.109 147.509 396.019 146.63L396.01 146.451L396.011 118.556L396.019 118.377C396.109 117.498 396.851 116.813 397.754 116.813Z" fill="#434343"/>
<path d="M246.467 112.164C251.108 112.164 254.237 116.91 252.409 121.176L250.46 125.725C249.91 127.008 250.852 128.436 252.248 128.437H254.854C260.584 128.437 263.449 128.436 265.521 129.558C267.536 130.649 269.077 132.446 269.849 134.604C270.642 136.821 270.206 139.653 269.335 145.317L268.688 149.528C267.999 154.005 267.654 156.244 266.557 157.926C265.589 159.408 264.219 160.584 262.606 161.314C260.777 162.143 258.512 162.144 253.982 162.144H241.19C235.983 162.144 233.38 162.143 231.391 161.13C229.641 160.238 228.219 158.816 227.327 157.066C226.314 155.077 226.313 152.473 226.313 147.266V141.026C226.313 137.615 226.313 135.909 226.698 134.304C227.04 132.881 227.604 131.52 228.368 130.272C229.231 128.865 230.437 127.658 232.85 125.246L245.553 112.543C245.795 112.301 246.124 112.164 246.467 112.164ZM221.083 128.437C222.046 128.437 222.826 129.217 222.826 130.18V158.075C222.826 159.038 222.046 159.818 221.083 159.818C220.12 159.818 219.34 159.038 219.34 158.075V130.18C219.34 129.217 220.12 128.437 221.083 128.437Z" fill="#434343"/>
<path d="M358.832 456.207C358.818 456.207 358.812 456.207 358.806 456.207C356.247 456.213 354.174 458.286 354.168 460.845C354.168 460.851 354.168 460.857 354.168 460.871V460.871C354.168 460.9 354.168 460.914 354.168 460.928C354.177 466.915 357.067 472.531 361.933 476.018C361.945 476.026 361.956 476.034 361.98 476.051L369.255 481.248C369.999 481.779 370.44 482.636 370.44 483.55V499.794C370.44 503.324 373.302 506.187 376.833 506.187V506.187C380.364 506.187 383.226 503.324 383.226 499.794V483.55C383.226 482.636 383.667 481.779 384.411 481.248L391.686 476.051C391.71 476.034 391.722 476.026 391.733 476.018C396.599 472.531 399.489 466.915 399.498 460.928C399.498 460.914 399.498 460.9 399.498 460.871V460.871C399.498 460.857 399.498 460.851 399.498 460.845C399.492 458.286 397.419 456.213 394.86 456.207C394.855 456.207 394.848 456.207 394.834 456.207H358.832Z" fill="#434343"/>
<path d="M389.547 268.424C390.185 267.786 391.195 267.745 391.88 268.304L392.013 268.424L396.661 273.073L396.781 273.205C397.34 273.89 397.299 274.9 396.661 275.538C396.023 276.176 395.013 276.217 394.328 275.658L394.196 275.538L389.547 270.89L389.427 270.757C388.868 270.072 388.909 269.062 389.547 268.424ZM372.183 228.395C384.7 228.395 394.848 238.542 394.848 251.06C394.848 257.318 392.309 262.986 388.209 267.086C384.109 271.186 378.441 273.725 372.183 273.725C359.665 273.725 349.518 263.577 349.518 251.06C349.518 238.542 359.665 228.395 372.183 228.395Z" fill="#434343"/>
<path d="M224.427 370.196C223.615 370.196 223.209 370.196 222.931 370.028C222.688 369.881 222.507 369.649 222.423 369.377C222.327 369.067 222.426 368.673 222.623 367.886L225.497 356.387C226.757 351.351 227.386 348.832 228.79 346.957C230.029 345.303 231.687 344.009 233.592 343.208C235.752 342.301 238.347 342.301 243.539 342.301H249.766C254.958 342.301 257.554 342.301 259.713 343.208C261.619 344.009 263.276 345.303 264.515 346.957C265.919 348.832 266.549 351.351 267.808 356.388L270.682 367.886C270.879 368.673 270.978 369.067 270.882 369.377C270.798 369.649 270.617 369.881 270.374 370.028C270.096 370.196 269.69 370.196 268.878 370.196H262.371C261.109 370.196 260.478 370.196 259.89 370.298C258.408 370.553 257.048 371.281 256.014 372.372C255.603 372.805 255.253 373.33 254.553 374.381V374.381C254.086 375.081 253.853 375.431 253.579 375.72C252.889 376.447 251.983 376.932 250.995 377.103C250.603 377.17 250.182 377.17 249.341 377.17H243.964C243.123 377.17 242.702 377.17 242.31 377.103C241.322 376.932 240.415 376.447 239.726 375.72C239.452 375.431 239.219 375.081 238.752 374.381V374.381C238.052 373.33 237.702 372.805 237.291 372.372C236.256 371.281 234.897 370.553 233.415 370.298C232.827 370.196 232.196 370.196 230.933 370.196H224.427Z" fill="#434343"/>
<path d="M224.427 373.683C223.615 373.683 223.209 373.683 222.931 373.851C222.688 373.999 222.507 374.23 222.423 374.502C222.327 374.813 222.426 375.206 222.623 375.994L223.173 378.194C224.432 383.23 225.061 385.749 226.465 387.624C227.704 389.278 229.362 390.572 231.267 391.373C233.427 392.28 236.023 392.28 241.214 392.28H252.091C257.282 392.28 259.878 392.28 262.038 391.373C263.943 390.572 265.601 389.278 266.84 387.624C268.244 385.749 268.873 383.23 270.132 378.194L270.682 375.994C270.879 375.206 270.978 374.813 270.882 374.502C270.798 374.23 270.617 373.999 270.374 373.851C270.096 373.683 269.69 373.683 268.878 373.683H262.561C261.72 373.683 261.299 373.683 260.907 373.751C259.919 373.921 259.012 374.406 258.323 375.134C258.049 375.423 257.816 375.773 257.349 376.473V376.473C256.649 377.523 256.299 378.048 255.888 378.481C254.853 379.573 253.494 380.3 252.012 380.556C251.424 380.657 250.793 380.657 249.53 380.657H244.717C242.534 380.657 241.442 380.657 240.451 380.356C239.574 380.09 238.758 379.653 238.05 379.071C237.25 378.413 236.644 377.505 235.433 375.688L235.2 375.339C234.797 374.734 234.595 374.431 234.328 374.212C234.092 374.018 233.82 373.872 233.528 373.784C233.197 373.683 232.833 373.683 232.106 373.683H224.427Z" fill="#434343"/>
<g clip-path="url(#clip1_10564_61013)">
<path d="M128.091 120.5C123.115 116.52 120.628 114.53 117.869 113.767C115.435 113.093 112.865 113.093 110.431 113.767C107.672 114.53 105.184 116.52 100.209 120.5L97.5356 122.639C94.4599 125.1 92.9221 126.33 91.8151 127.857C90.8344 129.21 90.1048 130.728 89.6611 132.339C89.1602 134.157 89.1602 136.126 89.1602 140.065V152.455C89.1602 159.088 94.5375 164.466 101.171 164.466V164.466C104.487 164.466 107.176 161.777 107.176 158.46V148.774C107.176 144.923 110.298 141.8 114.15 141.8V141.8C118.001 141.8 121.124 144.923 121.124 148.774V158.46C121.124 161.777 123.812 164.466 127.129 164.466V164.466C133.762 164.466 139.14 159.088 139.14 152.455V140.065C139.14 136.126 139.14 134.157 138.639 132.339C138.195 130.728 137.465 129.21 136.485 127.857C135.378 126.33 133.84 125.1 130.764 122.639L128.091 120.5Z" fill="#434343"/>
</g>
<path d="M351.844 360.317C351.844 351.126 359.694 344.626 367.535 344.626C370.732 344.626 374.183 345.547 376.83 348.252C379.456 345.543 382.873 344.579 386.157 344.627C393.956 344.74 401.823 351.106 401.823 360.317C401.823 374.309 388.411 384.372 376.833 390.161C365.256 384.372 351.844 374.309 351.844 360.317Z" fill="#434343"/>
<path d="M515.728 342.301C522.237 342.301 525.492 342.301 527.979 343.567C530.165 344.682 531.943 346.46 533.058 348.646C534.324 351.133 534.325 354.388 534.325 360.897V386.087C534.325 389.312 534.325 390.925 533.648 391.846C533.059 392.649 532.153 393.161 531.161 393.254C530.023 393.36 528.64 392.529 525.875 390.87L524.893 390.28C523.249 389.294 522.426 388.801 521.549 388.452C520.77 388.143 519.959 387.919 519.132 387.783C518.2 387.631 517.241 387.631 515.324 387.631H502.942C496.433 387.631 493.178 387.63 490.691 386.363C488.505 385.249 486.727 383.471 485.612 381.284C484.345 378.798 484.346 375.543 484.346 369.033V360.897C484.346 354.388 484.345 351.133 485.612 348.646C486.727 346.46 488.505 344.682 490.691 343.567C493.178 342.301 496.433 342.301 502.942 342.301H515.728ZM497.712 365.546C496.749 365.546 495.969 366.327 495.969 367.29C495.969 368.253 496.749 369.033 497.712 369.033H507.011L507.188 369.024C508.068 368.935 508.754 368.193 508.754 367.29C508.754 366.387 508.068 365.645 507.188 365.556L507.011 365.546H497.712ZM497.712 356.248C496.749 356.248 495.969 357.028 495.969 357.991C495.969 358.954 496.749 359.734 497.712 359.734H516.309L516.487 359.726C517.366 359.636 518.053 358.894 518.053 357.991C518.053 357.089 517.366 356.346 516.487 356.257L516.309 356.248H497.712Z" fill="#434343"/>
<path d="M509.336 453.883C500.67 453.883 493.645 460.908 493.645 469.574V474.384C493.645 476.024 493.031 477.605 491.923 478.814L488.667 482.371C485.82 485.482 486.971 490.481 490.893 492.031V492.031C502.742 496.717 515.93 496.717 527.779 492.031V492.031C531.701 490.481 532.853 485.482 530.005 482.371L526.749 478.814C525.642 477.605 525.027 476.024 525.027 474.384V469.574C525.027 460.908 518.002 453.883 509.336 453.883V453.883Z" fill="#434343"/>
<path d="M500.386 497.674C501.487 501.581 505.078 504.444 509.336 504.444C513.595 504.444 517.186 501.581 518.287 497.674C512.365 498.701 506.308 498.701 500.386 497.674Z" fill="#434343"/>
<defs>
<clipPath id="clip0_10564_61013">
<rect width="55.791" height="55.791" fill="white" transform="translate(88.5781 453.301)"/>
</clipPath>
<clipPath id="clip1_10564_61013">
<rect width="55.791" height="55.791" fill="white" transform="translate(86.2539 111.582)"/>
</clipPath>
</defs>
</svg>
