<svg width="623" height="623" viewBox="0 0 623 623" fill="none" xmlns="http://www.w3.org/2000/svg">
<rect width="623" height="623" fill="white"/>
<path d="M488.172 253.383H492.821L497.47 260.357L506.769 246.409L511.418 253.383H516.067M501.189 276.629H503.049C510.861 276.629 514.766 276.629 517.75 275.109C520.374 273.772 522.508 271.638 523.845 269.014C525.366 266.03 525.366 262.124 525.366 254.313V252.453C525.366 244.642 525.366 240.736 523.845 237.752C522.508 235.128 520.374 232.994 517.75 231.657C514.766 230.137 510.861 230.137 503.049 230.137H501.189C493.378 230.137 489.472 230.137 486.489 231.657C483.864 232.994 481.73 235.128 480.393 237.752C478.873 240.736 478.873 244.642 478.873 252.453V254.313C478.873 262.124 478.873 266.03 480.393 269.014C481.73 271.638 483.864 273.772 486.489 275.109C489.472 276.629 493.378 276.629 501.189 276.629Z" stroke="black" stroke-opacity="0.87" stroke-width="3.48694" stroke-linecap="round" stroke-linejoin="round"/>
<path d="M525.366 139.477C525.366 152.315 514.958 162.723 502.119 162.723C489.281 162.723 478.873 152.315 478.873 139.477M525.366 139.477C525.366 126.638 514.958 116.23 502.119 116.23M525.366 139.477H520.716M478.873 139.477C478.873 126.638 489.281 116.23 502.119 116.23M478.873 139.477H483.522M502.119 116.23V120.88M483.522 153.424L486.387 150.56C489.018 147.929 492.587 146.451 496.308 146.451V146.451M520.716 153.424L517.852 150.56C515.221 147.929 511.652 146.451 507.931 146.451V146.451M518.393 123.204L516.067 125.529M485.847 123.204L488.172 125.529M502.119 141.801C499.552 141.801 497.47 143.883 497.47 146.451C497.47 149.018 499.552 151.1 502.119 151.1C504.687 151.1 506.769 149.018 506.769 146.451C506.769 143.883 504.687 141.801 502.119 141.801ZM502.119 141.801V132.503" stroke="black" stroke-opacity="0.87" stroke-width="3.48694" stroke-linecap="round" stroke-linejoin="round"/>
<path d="M260.358 471.897L258.033 473.446L256.726 474.318C252.998 476.803 251.134 478.046 249.119 478.529C247.338 478.956 245.482 478.956 243.702 478.529C241.687 478.046 239.823 476.803 236.095 474.318L234.787 473.446L232.463 471.897M241.761 502.117H251.06C257.569 502.117 260.824 502.117 263.31 500.85C265.497 499.736 267.275 497.957 268.39 495.77C269.657 493.284 269.657 490.029 269.657 483.52V478.87C269.657 472.361 269.657 469.106 268.39 466.62C267.275 464.433 265.497 462.655 263.31 461.54C260.824 460.273 257.569 460.273 251.06 460.273H241.761C235.252 460.273 231.997 460.273 229.51 461.54C227.323 462.655 225.545 464.433 224.431 466.62C223.164 469.106 223.164 472.361 223.164 478.87V483.52C223.164 490.029 223.164 493.284 224.431 495.77C225.545 497.957 227.323 499.736 229.51 500.85C231.997 502.117 235.252 502.117 241.761 502.117Z" stroke="black" stroke-opacity="0.87" stroke-width="3.48694" stroke-linecap="round"/>
<path d="M116.231 348.692C114.611 348.692 113.007 348.084 112.015 346.803L110.964 345.446C109.54 343.609 106.977 343.105 104.964 344.267L101.927 346.021C99.9138 347.183 99.0686 349.654 99.9483 351.806L100.598 353.394C101.211 354.895 100.939 356.58 100.126 357.983V357.983C99.3148 359.385 97.9836 360.479 96.3788 360.698L94.6812 360.93C92.3776 361.244 90.6602 363.211 90.6602 365.536V369.043C90.6602 371.368 92.3776 373.335 94.6812 373.649L96.3789 373.881C97.9837 374.1 99.3148 375.194 100.126 376.596V376.596C100.939 377.998 101.211 379.684 100.597 381.184L99.9483 382.772C99.0685 384.924 99.9137 387.395 101.927 388.558L104.964 390.311C106.977 391.474 109.54 390.97 110.964 389.132L112.015 387.776C113.007 386.495 114.611 385.886 116.231 385.886V385.886V385.886C117.852 385.886 119.455 386.495 120.448 387.776L121.498 389.132C122.922 390.97 125.485 391.473 127.498 390.311L130.535 388.558C132.548 387.395 133.394 384.924 132.514 382.772L131.865 381.184C131.251 379.684 131.523 377.998 132.336 376.596V376.596C133.147 375.194 134.478 374.1 136.083 373.881L137.781 373.649C140.085 373.335 141.802 371.368 141.802 369.043V365.536C141.802 363.211 140.085 361.244 137.781 360.93L136.083 360.698C134.478 360.479 133.147 359.385 132.336 357.983V357.983C131.523 356.58 131.251 354.895 131.865 353.395L132.514 351.807C133.394 349.655 132.548 347.184 130.535 346.021L127.498 344.268C125.485 343.105 122.922 343.609 121.498 345.447L120.448 346.803C119.455 348.084 117.851 348.692 116.231 348.692V348.692V348.692Z" stroke="black" stroke-opacity="0.87" stroke-width="3.48694" stroke-linecap="round" stroke-linejoin="round"/>
<path d="M123.205 367.289C123.205 371.141 120.083 374.263 116.231 374.263C112.379 374.263 109.257 371.141 109.257 367.289C109.257 363.438 112.379 360.315 116.231 360.315C120.083 360.315 123.205 363.438 123.205 367.289Z" stroke="black" stroke-opacity="0.87" stroke-width="3.48694" stroke-linecap="round" stroke-linejoin="round"/>
<g clip-path="url(#clip0_10564_61012)">
<path d="M113.908 483.521L117.475 492.796C119.927 499.171 121.153 502.359 122.799 503.161C124.223 503.854 125.902 503.775 127.255 502.951C128.818 501.998 129.739 498.709 131.581 492.131L138.237 468.36C139.403 464.195 139.986 462.113 139.445 460.684C138.974 459.438 137.99 458.455 136.744 457.983C135.315 457.442 133.233 458.025 129.068 459.191L105.297 465.847C98.7189 467.689 95.43 468.609 94.4769 470.173C93.6527 471.526 93.5736 473.205 94.267 474.628C95.0688 476.275 98.2566 477.501 104.632 479.953L113.908 483.521ZM113.908 483.521L119.719 477.709" stroke="black" stroke-opacity="0.87" stroke-width="3.48694" stroke-linecap="round" stroke-linejoin="round"/>
</g>
<path d="M258.032 269.655H265.006M258.032 269.655C258.032 273.507 254.91 276.629 251.058 276.629C247.207 276.629 244.085 273.507 244.085 269.655C244.085 265.804 247.207 262.681 251.058 262.681C254.91 262.681 258.032 265.804 258.032 269.655ZM218.514 253.383H225.488M225.488 253.383C225.488 257.235 228.61 260.357 232.461 260.357C236.313 260.357 239.435 257.235 239.435 253.383C239.435 249.531 236.313 246.409 232.461 246.409C228.61 246.409 225.488 249.531 225.488 253.383ZM258.032 237.111H265.006M258.032 237.111C258.032 240.962 254.91 244.084 251.058 244.084C247.207 244.084 244.085 240.962 244.085 237.111C244.085 233.259 247.207 230.137 251.058 230.137C254.91 230.137 258.032 233.259 258.032 237.111ZM218.514 269.655H237.111M246.409 253.383H265.006M218.514 237.111H237.111" stroke="black" stroke-opacity="0.87" stroke-width="3.48694" stroke-linecap="round"/>
<path d="M92.9852 237.111L94.4861 262.625C94.776 267.554 94.921 270.019 95.973 271.889C96.8991 273.536 98.3047 274.861 100.003 275.689C101.932 276.629 104.4 276.629 109.338 276.629H113.826C118.764 276.629 121.233 276.629 123.162 275.689C124.86 274.861 126.265 273.536 127.191 271.889C128.243 270.019 128.388 267.554 128.678 262.625L130.179 237.111M92.9852 237.111H88.3359M92.9852 237.111H130.179M130.179 237.111H134.828M120.881 237.111L119.828 233.952C119.37 232.58 119.142 231.894 118.718 231.387C118.343 230.939 117.862 230.592 117.319 230.379C116.704 230.137 115.981 230.137 114.535 230.137H108.63C107.184 230.137 106.461 230.137 105.845 230.379C105.302 230.592 104.821 230.939 104.447 231.387C104.023 231.894 103.794 232.58 103.337 233.952L102.284 237.111M106.933 248.734V265.006M116.231 248.734V258.032" stroke="black" stroke-opacity="0.87" stroke-width="3.48694" stroke-linecap="round" stroke-linejoin="round"/>
<path d="M395.186 118.555L395.186 146.451M377.054 116.23H360.591C357.194 116.23 355.495 116.23 354.123 116.852C352.914 117.4 351.886 118.282 351.161 119.394C350.338 120.655 350.079 122.334 349.563 125.692L348.347 133.596C347.665 138.025 347.325 140.239 347.982 141.962C348.559 143.474 349.644 144.739 351.051 145.539C352.654 146.451 354.894 146.451 359.375 146.451H363.714C364.256 146.451 364.527 146.451 364.726 146.473C366.881 146.721 368.289 148.857 367.668 150.936C367.611 151.127 367.504 151.376 367.291 151.875L365.159 156.848C363.967 159.629 366.008 162.723 369.033 162.723V162.723C369.406 162.723 369.763 162.575 370.027 162.312L381.676 150.662C384.088 148.25 385.295 147.044 386.157 145.636C386.922 144.388 387.485 143.028 387.827 141.605C388.212 139.999 388.212 138.294 388.212 134.882V127.389C388.212 123.483 388.212 121.53 387.452 120.038C386.784 118.726 385.717 117.659 384.405 116.991C382.913 116.23 380.96 116.23 377.054 116.23Z" stroke="black" stroke-opacity="0.87" stroke-width="3.48694" stroke-linecap="round" stroke-linejoin="round"/>
<path d="M218.514 130.179L218.514 158.074M236.646 160.399H253.109C256.506 160.399 258.205 160.399 259.577 159.777C260.786 159.229 261.814 158.347 262.539 157.236C263.362 155.974 263.621 154.295 264.137 150.937L265.353 143.034C266.035 138.605 266.375 136.39 265.718 134.667C265.141 133.155 264.056 131.89 262.649 131.09C261.046 130.179 258.806 130.179 254.325 130.179H251.672C249.632 130.179 248.612 130.179 247.921 129.862C246.709 129.307 245.92 128.11 245.887 126.778C245.868 126.017 246.27 125.08 247.073 123.205L248.641 119.546C249.786 116.876 247.827 113.906 244.923 113.906V113.906C244.386 113.906 243.871 114.119 243.492 114.499L232.024 125.967C229.612 128.379 228.405 129.585 227.543 130.993C226.778 132.241 226.215 133.601 225.873 135.025C225.488 136.63 225.488 138.336 225.488 141.747V149.241C225.488 153.146 225.488 155.099 226.248 156.591C226.916 157.903 227.983 158.97 229.295 159.639C230.787 160.399 232.74 160.399 236.646 160.399Z" stroke="black" stroke-opacity="0.87" stroke-width="3.48694" stroke-linecap="round" stroke-linejoin="round"/>
<path d="M393.711 457.949H359.468C357.369 457.949 355.668 459.651 355.668 461.75C355.668 466.659 358.039 471.266 362.034 474.119L366.516 477.321L366.516 477.321C368.009 478.387 368.755 478.92 369.358 479.549C370.603 480.85 371.444 482.484 371.779 484.254C371.94 485.11 371.94 486.027 371.94 487.861V499.793C371.94 502.36 374.022 504.442 376.59 504.442C379.157 504.442 381.239 502.36 381.239 499.793V487.861C381.239 486.027 381.239 485.11 381.401 484.254C381.735 482.484 382.576 480.85 383.822 479.549C384.424 478.92 385.17 478.387 386.663 477.321L386.663 477.321L391.146 474.119C395.14 471.266 397.511 466.659 397.511 461.75C397.511 459.651 395.81 457.949 393.711 457.949Z" stroke="black" stroke-opacity="0.87" stroke-width="3.48694" stroke-linecap="round" stroke-linejoin="round"/>
<path d="M392.861 274.305L384.409 265.852M384.409 265.852C388.195 262.066 390.537 256.836 390.537 251.058C390.537 239.504 381.17 230.137 369.615 230.137C358.06 230.137 348.693 239.504 348.693 251.058C348.693 262.613 358.06 271.98 369.615 271.98C375.392 271.98 380.623 269.638 384.409 265.852Z" stroke="black" stroke-opacity="0.87" stroke-width="3.48694" stroke-linecap="round"/>
<path d="M224.327 371.938H230.806C232.262 371.938 232.989 371.938 233.65 372.139C234.235 372.317 234.779 372.608 235.251 372.996C235.784 373.434 236.188 374.04 236.995 375.251L237.228 375.6C238.035 376.811 238.439 377.417 238.972 377.855C239.445 378.243 239.989 378.534 240.574 378.712C241.234 378.912 241.962 378.912 243.418 378.912H249.403C250.859 378.912 251.586 378.912 252.247 378.712C252.832 378.534 253.376 378.243 253.848 377.855C254.381 377.417 254.785 376.811 255.592 375.6L255.825 375.251C256.632 374.04 257.036 373.434 257.57 372.996C258.042 372.608 258.586 372.317 259.171 372.139C259.831 371.938 260.559 371.938 262.015 371.938H268.495M226.617 358.129L225.184 363.857C224.858 365.164 224.694 365.817 224.564 366.469C223.842 370.08 223.842 373.797 224.564 377.408C224.694 378.06 224.858 378.713 225.184 380.02V380.02C225.591 381.646 225.794 382.459 226.068 383.157C227.616 387.104 231.19 389.894 235.395 390.439C236.138 390.536 236.976 390.536 238.653 390.536H254.168C255.844 390.536 256.682 390.536 257.426 390.439C261.63 389.894 265.204 387.104 266.752 383.157C267.026 382.459 267.23 381.646 267.636 380.019V380.019C267.963 378.713 268.126 378.059 268.257 377.408C268.979 373.797 268.979 370.08 268.257 366.469C268.126 365.818 267.963 365.164 267.636 363.857L266.205 358.13C264.945 353.093 264.316 350.575 262.912 348.7C261.673 347.045 260.016 345.751 258.11 344.95C255.95 344.043 253.355 344.043 248.163 344.043H244.658C239.467 344.043 236.871 344.043 234.711 344.95C232.806 345.751 231.148 347.045 229.909 348.699C228.505 350.574 227.876 353.093 226.617 358.129Z" stroke="black" stroke-opacity="0.87" stroke-width="3.48694" stroke-linecap="round"/>
<path d="M111.582 141.802V141.802C107.731 141.802 104.608 144.924 104.608 148.776V158.075C104.608 158.075 104.608 158.075 104.608 158.075C104.608 160.642 102.527 162.724 99.9591 162.724C99.9591 162.724 99.9591 162.724 99.9591 162.724V162.724C99.9591 162.724 99.9591 162.724 99.9591 162.724C93.5398 162.724 88.3359 157.52 88.3359 151.101C88.3359 151.101 88.3359 151.101 88.3359 151.101V139.117C88.3359 135.835 88.3359 134.194 88.7534 132.678C89.1232 131.336 89.7312 130.071 90.5484 128.944C91.4708 127.671 92.7524 126.646 95.3155 124.595L99.9648 120.876C104.111 117.559 106.184 115.901 108.483 115.265C110.511 114.704 112.653 114.704 114.681 115.265C116.98 115.901 119.053 117.559 123.2 120.876L127.849 124.595C130.412 126.646 131.694 127.671 132.616 128.944C133.433 130.071 134.041 131.336 134.411 132.678C134.828 134.194 134.828 135.835 134.828 139.117V151.101C134.828 151.101 134.828 151.101 134.828 151.101C134.828 157.52 129.625 162.724 123.205 162.724C123.205 162.724 123.205 162.724 123.205 162.724V162.724C123.205 162.724 123.205 162.724 123.205 162.724C120.638 162.724 118.556 160.642 118.556 158.075C118.556 158.075 118.556 158.075 118.556 158.075V148.776C118.556 144.924 115.434 141.802 111.582 141.802Z" stroke="black" stroke-opacity="0.87" stroke-width="3.48694" stroke-linecap="round" stroke-linejoin="round"/>
<path d="M376.588 388.21C378.913 388.21 399.834 376.588 399.834 360.316C399.834 352.18 392.86 346.47 385.887 346.369C382.4 346.318 378.913 347.531 376.588 351.018C374.263 347.531 370.716 346.369 367.29 346.369C360.316 346.369 353.342 352.18 353.342 360.316C353.342 376.588 374.263 388.21 376.588 388.21Z" stroke="black" stroke-opacity="0.87" stroke-width="3.48694" stroke-linecap="round" stroke-linejoin="round"/>
<path d="M495.145 357.991H513.742M495.145 367.289H504.443M522.381 388.28V388.28C524.426 389.508 525.449 390.121 526.282 390.18C527.68 390.278 529.001 389.53 529.636 388.281C530.014 387.537 530.014 386.344 530.014 383.959V362.64C530.014 356.13 530.014 352.876 528.747 350.389C527.633 348.202 525.855 346.424 523.668 345.31C521.181 344.043 517.927 344.043 511.417 344.043H502.118C495.609 344.043 492.354 344.043 489.868 345.31C487.681 346.424 485.903 348.202 484.788 350.389C483.521 352.876 483.521 356.13 483.521 362.64V367.289C483.521 373.799 483.521 377.054 484.788 379.54C485.903 381.727 487.681 383.505 489.868 384.619C492.354 385.886 495.609 385.886 502.119 385.886H513.738C515.16 385.886 515.872 385.886 516.567 385.97C517.722 386.11 518.849 386.422 519.912 386.897C520.551 387.182 521.161 387.548 522.381 388.28Z" stroke="black" stroke-opacity="0.87" stroke-width="3.48694" stroke-linecap="round" stroke-linejoin="round"/>
<path d="M502.118 498.736C503.649 502.181 507.647 504.442 511.417 504.442C515.186 504.442 519.184 502.181 520.715 498.736M525.364 479.313V471.897C525.364 464.194 519.12 457.949 511.417 457.949V457.949C503.713 457.949 497.469 464.194 497.469 471.897V479.313C497.469 481.251 496.646 483.098 495.206 484.395L492.63 486.713C489.556 489.479 490.537 494.524 494.424 495.938L494.914 496.116C505.574 499.993 517.259 499.993 527.919 496.116L528.409 495.938C532.296 494.524 533.277 489.479 530.203 486.713L527.627 484.395C526.187 483.098 525.364 481.251 525.364 479.313Z" stroke="black" stroke-opacity="0.87" stroke-width="3.48694" stroke-linecap="round" stroke-linejoin="round"/>
<defs>
<clipPath id="clip0_10564_61012">
<rect width="55.791" height="55.791" fill="white" transform="translate(88.3359 453.301)"/>
</clipPath>
</defs>
</svg>
